<svg xmlns="http://www.w3.org/2000/svg" style="display:none">
  <symbol id="menu" viewBox="0 0 512 512">
    <path style="fill: currentColor" fill="none" stroke="currentColor" stroke-linecap="round" stroke-miterlimit="10" stroke-width="48" d="M88 152h336M88 256h336M88 360h336"/>
  </symbol>
  <symbol id="home" viewBox="0 0 512 512">
    <path style="fill: currentColor" d="M261.56 101.28a8 8 0 00-11.06 0L66.4 277.15a8 8 0 00-2.47 5.79L63.9 448a32 32 0 0032 32H192a16 16 0 0016-16V328a8 8 0 018-8h80a8 8 0 018 8v136a16 16 0 0016 16h96.06a32 32 0 0032-32V282.94a8 8 0 00-2.47-5.79z"/>
    <path style="fill: currentColor" d="M490.91 244.15l-74.8-71.56V64a16 16 0 00-16-16h-48a16 16 0 00-16 16v32l-57.92-55.38C272.77 35.14 264.71 32 256 32c-8.68 0-16.72 3.14-22.14 8.63l-212.7 203.5c-6.22 6-7 15.87-1.34 22.37A16 16 0 0043 267.56L250.5 69.28a8 8 0 0111.06 0l207.52 198.28a16 16 0 0022.59-.44c6.14-6.36 5.63-16.86-.76-22.97z"/>
  </symbol>
  <symbol id="person" viewBox="0 0 512 512">
    <path style="fill: currentColor" d="M332.64 64.58C313.18 43.57 286 32 256 32c-30.16 0-57.43 11.5-76.8 32.38-19.58 21.11-29.12 49.8-26.88 80.78C156.76 206.28 203.27 256 256 256s99.16-49.71 103.67-110.82c2.27-30.7-7.33-59.33-27.03-80.6zM432 480H80a31 31 0 01-24.2-11.13c-6.5-7.77-9.12-18.38-7.18-29.11C57.06 392.94 83.4 353.61 124.8 326c36.78-24.51 83.37-38 131.2-38s94.42 13.5 131.2 38c41.4 27.6 67.74 66.93 76.18 113.75 1.94 10.73-.68 21.34-7.18 29.11A31 31 0 01432 480z"/>
  </symbol>
  <symbol id="analytics" viewBox="0 0 512 512">
    <path style="fill: currentColor" d="M456 128a40 40 0 00-37.23 54.6l-84.17 84.17a39.86 39.86 0 00-29.2 0l-60.17-60.17a40 40 0 10-74.46 0L70.6 306.77a40 40 0 1022.63 22.63L193.4 229.23a39.86 39.86 0 0029.2 0l60.17 60.17a40 40 0 1074.46 0l84.17-84.17A40 40 0 10456 128z"/>
  </symbol>
  <symbol id="chatbubble" viewBox="0 0 512 512">
    <path style="fill: currentColor" d="M76.83 480a25.69 25.69 0 01-25.57-25.74 29.13 29.13 0 011.2-7.63L70.88 380c.77-2.46-.1-4.94-1.23-6.9l-.22-.4c-.08-.13-.46-.66-.73-1.05s-.58-.81-.86-1.22l-.19-.27A215.66 215.66 0 0132 251.37c-.18-57.59 22.35-112 63.46-153.28C138 55.47 194.9 32 255.82 32A227.4 227.4 0 01398 81.84c39.45 31.75 66.87 76 77.21 124.68a213.5 213.5 0 014.78 45c0 58.93-22.64 114.28-63.76 155.87-41.48 42-97.18 65.06-156.83 65.06-21 0-47.87-5.36-60.77-9-15.52-4.34-30.23-10-31.85-10.6a15.12 15.12 0 00-5.37-1 14.75 14.75 0 00-5.8 1.15l-.85.33-67.48 24.38A29.44 29.44 0 0176.83 480zm-2-31.8zM87.48 380z"/>
  </symbol>
  <symbol id="chevron-back-circle" viewBox="0 0 512 512">
    <path style="fill: currentColor" d="M256 48C141.13 48 48 141.13 48 256s93.13 208 208 208 208-93.13 208-208S370.87 48 256 48zm35.31 292.69a16 16 0 11-22.62 22.62l-96-96a16 16 0 010-22.62l96-96a16 16 0 0122.62 22.62L206.63 256z"/>
  </symbol>
  <symbol id="chevron-down" viewBox="0 0 512 512">
    <path style="fill: currentColor" fill="none" stroke="currentColor" stroke-linecap="round" stroke-linejoin="round" stroke-width="48" d="M112 184l144 144 144-144"/>
  </symbol>
  <symbol id="chevron-forward-circle" viewBox="0 0 512 512">
    <path style="fill: currentColor" d="M48 256c0 114.87 93.13 208 208 208s208-93.13 208-208S370.87 48 256 48 48 141.13 48 256zm257.37 0l-84.68-84.69a16 16 0 0122.62-22.62l96 96a16 16 0 010 22.62l-96 96a16 16 0 01-22.62-22.62z"/>
  </symbol>
  <symbol id="close-circle" viewBox="0 0 512 512">
    <path style="fill: currentColor" d="M256 48C141.31 48 48 141.31 48 256s93.31 208 208 208 208-93.31 208-208S370.69 48 256 48zm75.31 260.69a16 16 0 11-22.62 22.62L256 278.63l-52.69 52.68a16 16 0 01-22.62-22.62L233.37 256l-52.68-52.69a16 16 0 0122.62-22.62L256 233.37l52.69-52.68a16 16 0 0122.62 22.62L278.63 256z"/>
  </symbol>
  <symbol id="close" viewBox="0 0 512 512">
    <path style="fill: currentColor" d="M289.94 256l95-95A24 24 0 00351 127l-95 95-95-95a24 24 0 00-34 34l95 95-95 95a24 24 0 1034 34l95-95 95 95a24 24 0 0034-34z"/>
  </symbol>
  <symbol id="code-slash" viewBox="0 0 512 512">
    <path style="fill: currentColor" d="M160 389a20.91 20.91 0 01-13.82-5.2l-128-112a21 21 0 010-31.6l128-112a21 21 0 0127.66 31.61L63.89 256l109.94 96.19A21 21 0 01160 389zM352 389a21 21 0 01-13.84-36.81L448.11 256l-109.94-96.19a21 21 0 0127.66-31.61l128 112a21 21 0 010 31.6l-128 112A20.89 20.89 0 01352 389zM208 437a21 21 0 01-20.12-27l96-320a21 21 0 1140.23 12l-96 320A21 21 0 01208 437z"/>
  </symbol>
  <symbol id="code" viewBox="0 0 512 512">
    <path style="fill: currentColor" d="M160 389a20.91 20.91 0 01-13.82-5.2l-128-112a21 21 0 010-31.6l128-112a21 21 0 0127.66 31.61L63.89 256l109.94 96.19A21 21 0 01160 389zM352 389a21 21 0 01-13.84-36.81L448.11 256l-109.94-96.19a21 21 0 0127.66-31.61l128 112a21 21 0 010 31.6l-128 112A20.89 20.89 0 01352 389z"/>
  </symbol>
  <symbol id="cog" viewBox="0 0 512 512">
    <path style="fill: currentColor" d="M464 249.93a10.58 10.58 0 00-9.36-9.94L429 235.84a5.42 5.42 0 01-4.5-4.67c-.49-3.15-1-6.42-1.7-9.52a5.52 5.52 0 012.63-5.85l22.78-12.65a10.35 10.35 0 005-12.83l-3.95-10.9a10.32 10.32 0 00-12.13-6.51l-25.55 5a5.51 5.51 0 01-5.82-2.81c-1.49-2.79-3.11-5.63-4.8-8.42a5.6 5.6 0 01-.44-6.5l17-19.64a10.42 10.42 0 00-.39-13.76l-7.42-8.91a10.24 10.24 0 00-13.58-2l-22.37 13.43a5.39 5.39 0 01-6.39-.63c-2.47-2.17-5-4.26-7.37-6.19a5.45 5.45 0 01-1.72-6.21l9.26-24.4a10.35 10.35 0 00-4.31-13.07l-10.09-5.89a10.3 10.3 0 00-13.45 2.83L325 96.28a4.6 4.6 0 01-5.6 1.72c-.61-.25-5.77-2.36-9.78-3.7a5.42 5.42 0 01-3.74-5.23l.39-26.07a10.48 10.48 0 00-8.57-10.88l-11.45-2a10.45 10.45 0 00-11.75 7.17L266 82.1a5.46 5.46 0 01-5.36 3.65h-9.75a5.5 5.5 0 01-5.3-3.67l-8.46-24.67a10.46 10.46 0 00-11.77-7.25l-11.47 2a10.46 10.46 0 00-8.56 10.79l.4 26.16a5.45 5.45 0 01-3.86 5.25c-2.29.89-7.26 2.79-9.52 3.63-2 .72-4.18-.07-5.94-2.1l-16.26-20A10.3 10.3 0 00156.69 73l-10.06 5.83A10.36 10.36 0 00142.31 92l9.25 24.34a5.54 5.54 0 01-1.7 6.23c-2.43 2-4.92 4-7.4 6.22a5.38 5.38 0 01-6.35.64L114 115.74a10.4 10.4 0 00-13.61 2L93 126.63a10.31 10.31 0 00.37 13.75L110.45 160a5.42 5.42 0 01.45 6.45c-1.71 2.72-3.34 5.58-4.82 8.44a5.53 5.53 0 01-5.86 2.82l-25.51-4.93a10.34 10.34 0 00-12.14 6.51l-4 10.88a10.38 10.38 0 005 12.85l22.78 12.65a5.39 5.39 0 012.65 5.92l-.24 1.27c-.52 2.79-1 5.43-1.46 8.24a5.48 5.48 0 01-4.46 4.64l-25.69 4.15A10.42 10.42 0 0048 250.16v11.58A10.26 10.26 0 0057.16 272l25.68 4.14a5.41 5.41 0 014.5 4.67c.49 3.16 1 6.42 1.7 9.52a5.52 5.52 0 01-2.63 5.85l-22.77 12.67a10.35 10.35 0 00-5 12.83l4 10.9a10.33 10.33 0 0012.13 6.51l25.55-4.95a5.49 5.49 0 015.82 2.81c1.5 2.8 3.11 5.63 4.8 8.42a5.58 5.58 0 01-.44 6.5l-17 19.63a10.41 10.41 0 00-.5 13.77l7.41 8.91a10.23 10.23 0 0013.58 2l22.37-13.43a5.39 5.39 0 016.39.63c2.48 2.17 5 4.26 7.37 6.19a5.47 5.47 0 011.73 6.21l-9.27 24.4a10.35 10.35 0 004.31 13.07l10.11 5.84a10.3 10.3 0 0013.45-2.82L187 415.92c1.4-1.73 3.6-2.5 5.23-1.84 3.48 1.44 5.81 2.25 9.94 3.63a5.44 5.44 0 013.75 5.23l-.4 26.05a10.5 10.5 0 008.57 10.88l11.45 2a10.43 10.43 0 0011.75-7.17l8.5-24.77a5.45 5.45 0 015.36-3.65h9.75a5.49 5.49 0 015.3 3.67l8.47 24.67a10.48 10.48 0 0010 7.41 9.74 9.74 0 001.78-.16l11.47-2a10.46 10.46 0 008.56-10.79l-.4-26.16a5.43 5.43 0 013.75-5.2c3.84-1.29 6.54-2.33 8.91-3.25l.6-.23c3.1-1.07 4.6.23 5.47 1.31l16.75 20.63A10.3 10.3 0 00355 439l10.07-5.83a10.35 10.35 0 004.31-13.1l-9.24-24.34a5.52 5.52 0 011.69-6.23c2.43-2 4.92-4 7.4-6.22a5.39 5.39 0 016.38-.62l22.39 13.4a10.39 10.39 0 0013.61-2l7.4-8.9a10.31 10.31 0 00-.37-13.75l-17.06-19.67a5.42 5.42 0 01-.45-6.45c1.71-2.71 3.34-5.57 4.82-8.44a5.55 5.55 0 015.86-2.82l25.48 4.97a10.34 10.34 0 0012.14-6.51l3.95-10.88a10.37 10.37 0 00-5-12.84l-22.8-12.67a5.4 5.4 0 01-2.61-5.89l.24-1.27c.52-2.79 1-5.43 1.46-8.24a5.48 5.48 0 014.46-4.64l25.69-4.14a10.43 10.43 0 009.18-10.28v-11.71zm-282.45 94a15.8 15.8 0 01-25.47 2.66 135.06 135.06 0 01-.42-181.65 15.81 15.81 0 0125.5 2.77l45.65 80.35a15.85 15.85 0 010 15.74zM256 391.11a134.75 134.75 0 01-28.31-3 15.81 15.81 0 01-10.23-23.36l46-80a15.79 15.79 0 0113.7-7.93h92.14a15.8 15.8 0 0115.1 20.53c-17.49 54.32-68.4 93.76-128.4 93.76zm7.51-163.9L218 147.07a15.81 15.81 0 0110.31-23.3 134 134 0 0127.69-2.88c60 0 110.91 39.44 128.37 93.79a15.8 15.8 0 01-15.1 20.53h-92a15.78 15.78 0 01-13.76-8z"/>
  </symbol>
  <symbol id="copy-outline" viewBox="0 0 512 512">
    <rect x="128" y="128" width="336" height="336" rx="57" ry="57" fill="none" stroke="currentColor" stroke-linejoin="round" stroke-width="32"/>
    <path d="M383.5 128l.5-24a56.16 56.16 0 00-56-56H112a64.19 64.19 0 00-64 64v216a56.16 56.16 0 0056 56h24" fill="none" stroke="currentColor" stroke-linecap="round" stroke-linejoin="round" stroke-width="32"/>
  </symbol>
  <symbol id="document-text" viewBox="0 0 512 512">
    <path style="fill: currentColor" d="M428 224H288a48 48 0 01-48-48V36a4 4 0 00-4-4h-92a64 64 0 00-64 64v320a64 64 0 0064 64h224a64 64 0 0064-64V228a4 4 0 00-4-4zm-92 160H176a16 16 0 010-32h160a16 16 0 010 32zm0-80H176a16 16 0 010-32h160a16 16 0 010 32z"/>
    <path style="fill: currentColor" d="M419.22 188.59L275.41 44.78a2 2 0 00-3.41 1.41V176a16 16 0 0016 16h129.81a2 2 0 001.41-3.41z"/>
  </symbol>
  <symbol id="file-tray-full" viewBox="0 0 512 512">
    <path style="fill: currentColor" d="M479.66 268.7l-32-151.81C441.48 83.77 417.68 64 384 64H128c-16.8 0-31 4.69-42.1 13.94s-18.37 22.31-21.58 38.89l-32 151.87A16.65 16.65 0 0032 272v112a64 64 0 0064 64h320a64 64 0 0064-64V272a16.65 16.65 0 00-.34-3.3zm-384-145.4v-.28c3.55-18.43 13.81-27 32.29-27H384c18.61 0 28.87 8.55 32.27 26.91 0 .13.05.26.07.39l26.93 127.88a4 4 0 01-3.92 4.82H320a15.92 15.92 0 00-16 15.82 48 48 0 11-96 0A15.92 15.92 0 00192 256H72.65a4 4 0 01-3.92-4.82z"/>
    <path style="fill: currentColor" d="M368 160H144a16 16 0 010-32h224a16 16 0 010 32zM384 224H128a16 16 0 010-32h256a16 16 0 010 32z"/>
  </symbol>
  <symbol id="globe-outline" viewBox="0 0 512 512">
    <path d="M256 48C141.13 48 48 141.13 48 256s93.13 208 208 208 208-93.13 208-208S370.87 48 256 48z" fill="none" stroke="currentColor" stroke-miterlimit="10" stroke-width="32"/>
    <path d="M256 48c-58.07 0-112.67 93.13-112.67 208S197.93 464 256 464s112.67-93.13 112.67-208S314.07 48 256 48z" fill="none" stroke="currentColor" stroke-miterlimit="10" stroke-width="32"/>
    <path d="M117.33 117.33c38.24 27.15 86.38 43.34 138.67 43.34s100.43-16.19 138.67-43.34M394.67 394.67c-38.24-27.15-86.38-43.34-138.67-43.34s-100.43 16.19-138.67 43.34" fill="none" stroke="currentColor" stroke-linecap="round" stroke-linejoin="round" stroke-width="32"/>
    <path fill="none" stroke="currentColor" stroke-miterlimit="10" stroke-width="32" d="M256 48v416M464 256H48"/>
  </symbol>
  <symbol id="globe" viewBox="0 0 512 512">
    <path style="fill: currentColor" d="M340.75 344.49c5.91-20.7 9.82-44.75 11.31-67.84a4.41 4.41 0 00-4.46-4.65h-71.06a4.43 4.43 0 00-4.47 4.39v55.3a4.44 4.44 0 004.14 4.38 273.51 273.51 0 0159 11.39 4.45 4.45 0 005.54-2.97zM323.58 377.31a260.05 260.05 0 00-46.6-9.09 4.42 4.42 0 00-4.91 4.29v65.24a4.47 4.47 0 006.76 3.7c15.9-9.27 29-24.84 40.84-45.43 1.94-3.36 4.89-9.15 6.67-12.69a4.29 4.29 0 00-2.76-6.02zM235.29 368.4a256.85 256.85 0 00-46.56 8.82c-2.64.76-3.75 4.4-2.55 6.79 1.79 3.56 4 8.11 5.89 11.51 13 23 26.84 37.5 41.24 45.93a4.47 4.47 0 006.76-3.7v-65.27a4.16 4.16 0 00-4.78-4.08zM235.6 272h-71.06a4.41 4.41 0 00-4.46 4.64c1.48 23.06 5.37 47.16 11.26 67.84a4.46 4.46 0 005.59 3 272.2 272.2 0 0159-11.36 4.44 4.44 0 004.15-4.38V276.4a4.43 4.43 0 00-4.48-4.4zM277 143.78a235.8 235.8 0 0046.5-9.14 4.3 4.3 0 002.76-6c-1.79-3.57-4.27-8.68-6.17-12.09-12.29-22-26.14-37.35-41.24-46a4.48 4.48 0 00-6.76 3.7v65.23a4.43 4.43 0 004.91 4.3zM276.54 240h71.06a4.39 4.39 0 004.46-4.58c-1.48-22.77-5.27-47.8-11.16-68.22a4.46 4.46 0 00-5.59-2.95c-19 5.74-38.79 10.43-59.09 12a4.4 4.4 0 00-4.15 4.32v55.11a4.4 4.4 0 004.47 4.32zM233.31 70.56c-15.42 8.57-29.17 24.43-41.47 46.37-1.91 3.41-4.19 8.11-6 11.67a4.31 4.31 0 002.76 6 225.42 225.42 0 0046.54 9.17 4.43 4.43 0 004.91-4.29V74.26a4.49 4.49 0 00-6.74-3.7zM235.92 176.26c-20.3-1.55-40.11-6.24-59.09-12a4.46 4.46 0 00-5.59 2.95c-5.89 20.42-9.68 45.45-11.16 68.22a4.39 4.39 0 004.46 4.58h71.06a4.4 4.4 0 004.47-4.34v-55.09a4.4 4.4 0 00-4.15-4.32z"/>
    <path style="fill: currentColor" d="M414.39 97.61A224 224 0 1097.61 414.39 224 224 0 10414.39 97.61zM176.6 430.85a219.08 219.08 0 01-12.48-19.66c-2-3.69-4.84-9.26-6.73-13.13a7.29 7.29 0 00-10.31-3.16c-4.3 2.41-10 5.72-14.13 8.43a147.29 147.29 0 01-23.57-22.43 248.83 248.83 0 0130.41-18.36c1.86-1 2.77-2.14 2.18-4.18a374.8 374.8 0 01-14.09-82.17 4.36 4.36 0 00-4.3-4.17H66.84a2 2 0 01-2-1.7A98.28 98.28 0 0164 256a96.27 96.27 0 01.86-14.29 2 2 0 012-1.7h56.74c2.29 0 4.17-1.32 4.29-3.63a372.71 372.71 0 0114-81.83 4.36 4.36 0 00-2.19-5.11 260.63 260.63 0 01-29.84-17.9 169.82 169.82 0 0123.14-22.8c4.08 2.68 9.4 5.71 13.66 8.11a7.89 7.89 0 0011-3.42c1.88-3.87 4-8.18 6.06-11.88a221.93 221.93 0 0112.54-19.91A185 185 0 01256 64c28.94 0 55.9 7 80.53 18.46a202.23 202.23 0 0112 19c2.59 4.66 5.34 10.37 7.66 15.32a4.29 4.29 0 005.92 1.94c5.38-2.91 11.21-6.26 16.34-9.63a171.36 171.36 0 0123.2 23 244.89 244.89 0 01-29.06 17.31 4.35 4.35 0 00-2.18 5.12 348.68 348.68 0 0113.85 81.4 4.33 4.33 0 004.3 4.12l56.62-.07a2 2 0 012 1.7 117.46 117.46 0 010 28.62 2 2 0 01-2 1.72h-56.67a4.35 4.35 0 00-4.3 4.17 367.4 367.4 0 01-13.87 81.3 4.45 4.45 0 002.19 5.19c5 2.59 10.57 5.48 15.37 8.42s9.55 6.08 14.13 9.34a172.73 172.73 0 01-23 22.93c-2.44-1.61-5.34-3.44-7.84-4.94-1.72-1-4.89-2.77-6.65-3.76-3.82-2.14-7.88-.54-9.79 3.4s-4.83 9.59-6.87 13.25a212.42 212.42 0 01-12.35 19.53C310.91 442.37 284.94 448 256 448s-54.77-5.63-79.4-17.15z"/>
  </symbol>
  <symbol id="hardware-chip-outline" viewBox="0 0 512 512">
    <rect x="80" y="80" width="352" height="352" rx="48" ry="48" fill="none" stroke="currentColor" stroke-linejoin="round" stroke-width="32"/>
    <rect x="144" y="144" width="224" height="224" rx="16" ry="16" fill="none" stroke="currentColor" stroke-linejoin="round" stroke-width="32"/>
    <path fill="none" stroke="currentColor" stroke-linecap="round" stroke-linejoin="round" stroke-width="32" d="M256 80V48M336 80V48M176 80V48M256 464v-32M336 464v-32M176 464v-32M432 256h32M432 336h32M432 176h32M48 256h32M48 336h32M48 176h32"/>
  </symbol>
  <symbol id="help-circle" viewBox="0 0 512 512">
    <path style="fill: currentColor" d="M256 64C150 64 64 150 64 256s86 192 192 192 192-86 192-192S362 64 256 64zm-6 304a20 20 0 1120-20 20 20 0 01-20 20zm33.44-102C267.23 276.88 265 286.85 265 296a14 14 0 01-28 0c0-21.91 10.08-39.33 30.82-53.26C287.1 229.8 298 221.6 298 203.57c0-12.26-7-21.57-21.49-28.46-3.41-1.62-11-3.2-20.34-3.09-11.72.15-20.82 2.95-27.83 8.59C215.12 191.25 214 202.83 214 203a14 14 0 11-28-1.35c.11-2.43 1.8-24.32 24.77-42.8 11.91-9.58 27.06-14.56 45-14.78 12.7-.15 24.63 2 32.72 5.82C312.7 161.34 326 180.43 326 203.57c0 33.83-22.61 49.02-42.56 62.43z"/>
  </symbol>
  <symbol id="information-circle" viewBox="0 0 512 512">
    <path style="fill: currentColor" d="M256 56C145.72 56 56 145.72 56 256s89.72 200 200 200 200-89.72 200-200S366.28 56 256 56zm0 82a26 26 0 11-26 26 26 26 0 0126-26zm48 226h-88a16 16 0 010-32h28v-88h-16a16 16 0 010-32h32a16 16 0 0116 16v104h28a16 16 0 010 32z"/>
  </symbol>
  <symbol id="layers" viewBox="0 0 512 512">
    <path style="fill: currentColor" d="M256 256c-13.47 0-26.94-2.39-37.44-7.17l-148-67.49C63.79 178.26 48 169.25 48 152.24s15.79-26 22.58-29.12l149.28-68.07c20.57-9.4 51.61-9.4 72.19 0l149.37 68.07c6.79 3.09 22.58 12.1 22.58 29.12s-15.79 26-22.58 29.11l-148 67.48C282.94 253.61 269.47 256 256 256zm176.76-100.86z"/>
    <path style="fill: currentColor" d="M441.36 226.81L426.27 220l-38.77 17.74-94 43c-10.5 4.8-24 7.19-37.44 7.19s-26.93-2.39-37.42-7.19l-94.07-43L85.79 220l-15.22 6.84C63.79 229.93 48 239 48 256s15.79 26.08 22.56 29.17l148 67.63C229 357.6 242.49 360 256 360s26.94-2.4 37.44-7.19l147.87-67.61c6.81-3.09 22.69-12.11 22.69-29.2s-15.77-26.07-22.64-29.19z"/>
    <path style="fill: currentColor" d="M441.36 330.8l-15.09-6.8-38.77 17.73-94 42.95c-10.5 4.78-24 7.18-37.44 7.18s-26.93-2.39-37.42-7.18l-94.07-43L85.79 324l-15.22 6.84C63.79 333.93 48 343 48 360s15.79 26.07 22.56 29.15l148 67.59C229 461.52 242.54 464 256 464s26.88-2.48 37.38-7.27l147.92-67.57c6.82-3.08 22.7-12.1 22.7-29.16s-15.77-26.07-22.64-29.2z"/>
  </symbol>
  <symbol id="logo-github" viewBox="0 0 512 512">
    <path style="fill: currentColor" d="M256 32C132.3 32 32 134.9 32 261.7c0 101.5 64.2 187.5 153.2 217.9a17.56 17.56 0 003.8.4c8.3 0 11.5-6.1 11.5-11.4 0-5.5-.2-19.9-.3-39.1a102.4 102.4 0 01-22.6 2.7c-43.1 0-52.9-33.5-52.9-33.5-10.2-26.5-24.9-33.6-24.9-33.6-19.5-13.7-.1-14.1 1.4-14.1h.1c22.5 2 34.3 23.8 34.3 23.8 11.2 19.6 26.2 25.1 39.6 25.1a63 63 0 0025.6-6c2-14.8 7.8-24.9 14.2-30.7-49.7-5.8-102-25.5-102-113.5 0-25.1 8.7-45.6 23-61.6-2.3-5.8-10-29.2 2.2-60.8a18.64 18.64 0 015-.5c8.1 0 26.4 3.1 56.6 24.1a208.21 208.21 0 01112.2 0c30.2-21 48.5-24.1 56.6-24.1a18.64 18.64 0 015 .5c12.2 31.6 4.5 55 2.2 60.8 14.3 16.1 23 36.6 23 61.6 0 88.2-52.4 107.6-102.3 113.3 8 7.1 15.2 21.1 15.2 42.5 0 30.7-.3 55.5-.3 63 0 5.4 3.1 11.5 11.4 11.5a19.35 19.35 0 004-.4C415.9 449.2 480 363.1 480 261.7 480 134.9 379.7 32 256 32z"/>
  </symbol>
  <symbol id="logo-linkedin" viewBox="0 0 512 512">
    <path style="fill: currentColor" d="M444.17 32H70.28C49.85 32 32 46.7 32 66.89v374.72C32 461.91 49.85 480 70.28 480h373.78c20.54 0 35.94-18.21 35.94-38.39V66.89C480.12 46.7 464.6 32 444.17 32zm-273.3 373.43h-64.18V205.88h64.18zM141 175.54h-.46c-20.54 0-33.84-15.29-33.84-34.43 0-19.49 13.65-34.42 34.65-34.42s33.85 14.82 34.31 34.42c-.01 19.14-13.31 34.43-34.66 34.43zm264.43 229.89h-64.18V296.32c0-26.14-9.34-44-32.56-44-17.74 0-28.24 12-32.91 23.69-1.75 4.2-2.22 9.92-2.22 15.76v113.66h-64.18V205.88h64.18v27.77c9.34-13.3 23.93-32.44 57.88-32.44 42.13 0 74 27.77 74 87.64z"/>
  </symbol>
  <symbol id="mail" viewBox="0 0 512 512">
    <path style="fill: currentColor" d="M424 80H88a56.06 56.06 0 00-56 56v240a56.06 56.06 0 0056 56h336a56.06 56.06 0 0056-56V136a56.06 56.06 0 00-56-56zm-14.18 92.63l-144 112a16 16 0 01-19.64 0l-144-112a16 16 0 1119.64-25.26L256 251.73l134.18-104.36a16 16 0 0119.64 25.26z"/>
  </symbol>
  <symbol id="moon" viewBox="0 0 512 512">
    <path style="fill: currentColor" d="M264 480A232 232 0 0132 248c0-94 54-178.28 137.61-214.67a16 16 0 0121.06 21.06C181.07 76.43 176 104.66 176 136c0 110.28 89.72 200 200 200 31.34 0 59.57-5.07 81.61-14.67a16 16 0 0121.06 21.06C442.28 426 358 480 264 480z"/>
  </symbol>
  <symbol id="people" viewBox="0 0 512 512">
    <path style="fill: currentColor" d="M336 256c-20.56 0-40.44-9.18-56-25.84-15.13-16.25-24.37-37.92-26-61-1.74-24.62 5.77-47.26 21.14-63.76S312 80 336 80c23.83 0 45.38 9.06 60.7 25.52 15.47 16.62 23 39.22 21.26 63.63-1.67 23.11-10.9 44.77-26 61C376.44 246.82 356.57 256 336 256zm66-88zM467.83 432H204.18a27.71 27.71 0 01-22-10.67 30.22 30.22 0 01-5.26-25.79c8.42-33.81 29.28-61.85 60.32-81.08C264.79 297.4 299.86 288 336 288c36.85 0 71 9 98.71 26.05 31.11 19.13 52 47.33 60.38 81.55a30.27 30.27 0 01-5.32 25.78A27.68 27.68 0 01467.83 432zM147 260c-35.19 0-66.13-32.72-69-72.93-1.42-20.6 5-39.65 18-53.62 12.86-13.83 31-21.45 51-21.45s38 7.66 50.93 21.57c13.1 14.08 19.5 33.09 18 53.52-2.87 40.2-33.8 72.91-68.93 72.91zM212.66 291.45c-17.59-8.6-40.42-12.9-65.65-12.9-29.46 0-58.07 7.68-80.57 21.62-25.51 15.83-42.67 38.88-49.6 66.71a27.39 27.39 0 004.79 23.36A25.32 25.32 0 0041.72 400h111a8 8 0 007.87-6.57c.11-.63.25-1.26.41-1.88 8.48-34.06 28.35-62.84 57.71-83.82a8 8 0 00-.63-13.39c-1.57-.92-3.37-1.89-5.42-2.89z"/>
  </symbol>
  <symbol id="remove" viewBox="0 0 512 512">
    <path style="fill: currentColor" fill="none" stroke="currentColor" stroke-linecap="round" stroke-linejoin="round" stroke-width="32" d="M400 256H112"/>
  </symbol>
  <symbol id="ribbon-outline" viewBox="0 0 512 512">
    <circle cx="256" cy="160" r="128" fill="none" stroke="currentColor" stroke-linecap="round" stroke-linejoin="round" stroke-width="32"/>
    <path d="M143.65 227.82L48 400l86.86-.42a16 16 0 0113.82 7.8L192 480l88.33-194.32" fill="none" stroke="currentColor" stroke-linecap="round" stroke-linejoin="round" stroke-width="32"/>
    <path d="M366.54 224L464 400l-86.86-.42a16 16 0 00-13.82 7.8L320 480l-64-140.8" fill="none" stroke="currentColor" stroke-linecap="round" stroke-linejoin="round" stroke-width="32"/>
    <circle cx="256" cy="160" r="64" fill="none" stroke="currentColor" stroke-linecap="round" stroke-linejoin="round" stroke-width="32"/>
  </symbol>
  <symbol id="scan" viewBox="0 0 512 512">
    <path style="fill: currentColor" d="M342 444h46a56 56 0 0056-56v-46M444 170v-46a56 56 0 00-56-56h-46M170 444h-46a56 56 0 01-56-56v-46M68 170v-46a56 56 0 0156-56h46" fill="none" stroke="currentColor" stroke-linecap="round" stroke-linejoin="round" stroke-width="44"/>
  </symbol>
  <symbol id="school" viewBox="0 0 512 512">
    <path style="fill: currentColor" d="M256 368a16 16 0 01-7.94-2.11L108 285.84a8 8 0 00-12 6.94V368a16 16 0 008.23 14l144 80a16 16 0 0015.54 0l144-80a16 16 0 008.23-14v-75.22a8 8 0 00-12-6.94l-140.06 80.05A16 16 0 01256 368z"/>
    <path style="fill: currentColor" d="M495.92 190.5v-.11a16 16 0 00-8-12.28l-224-128a16 16 0 00-15.88 0l-224 128a16 16 0 000 27.78l224 128a16 16 0 0015.88 0L461 221.28a2 2 0 013 1.74v144.53c0 8.61 6.62 16 15.23 16.43A16 16 0 00496 368V192a14.76 14.76 0 00-.08-1.5z"/>
  </symbol>
  <symbol id="server" viewBox="0 0 512 512">
    <path style="fill: currentColor" d="M256 428c-52.35 0-111.39-11.61-157.93-31-17.07-7.19-31.69-18.82-43.64-28a4 4 0 00-6.43 3.18v12.58c0 28.07 23.49 53.22 66.14 70.82C152.29 471.33 202.67 480 256 480s103.7-8.67 141.86-24.42C440.51 438 464 412.83 464 384.76v-12.58a4 4 0 00-6.43-3.18c-11.95 9.17-26.57 20.81-43.65 28-46.54 19.39-105.57 31-157.92 31zM464 126.51c-.81-27.65-24.18-52.4-66-69.85C359.74 40.76 309.34 32 256 32s-103.74 8.76-141.91 24.66c-41.78 17.41-65.15 42.11-66 69.69L48 144c0 6.41 5.2 16.48 14.63 24.73 11.13 9.73 27.65 19.33 47.78 27.73C153.24 214.36 207.67 225 256 225s102.76-10.68 145.59-28.58c20.13-8.4 36.65-18 47.78-27.73C458.8 160.49 464 150.42 464 144z"/>
    <path style="fill: currentColor" d="M413.92 226c-46.53 19.43-105.57 31-157.92 31s-111.39-11.57-157.93-31c-17.07-7.15-31.69-18.79-43.64-28a4 4 0 00-6.43 3.22V232c0 6.41 5.2 14.48 14.63 22.73 11.13 9.74 27.65 19.33 47.78 27.74C153.24 300.34 207.67 311 256 311s102.76-10.68 145.59-28.57c20.13-8.41 36.65-18 47.78-27.74C458.8 246.47 464 238.41 464 232v-30.78a4 4 0 00-6.43-3.18c-11.95 9.17-26.57 20.81-43.65 27.96z"/>
    <path style="fill: currentColor" d="M413.92 312c-46.54 19.41-105.57 31-157.92 31s-111.39-11.59-157.93-31c-17.07-7.17-31.69-18.81-43.64-28a4 4 0 00-6.43 3.2V317c0 6.41 5.2 14.47 14.62 22.71 11.13 9.74 27.66 19.33 47.79 27.74C153.24 385.32 207.66 396 256 396s102.76-10.68 145.59-28.57c20.13-8.41 36.65-18 47.78-27.74C458.8 331.44 464 323.37 464 317v-29.8a4 4 0 00-6.43-3.18c-11.95 9.17-26.57 20.81-43.65 27.98z"/>
  </symbol>
  <symbol id="storefront" viewBox="0 0 512 512">
    <path style="fill: currentColor" d="M480 448h-12a4 4 0 01-4-4V273.51a4 4 0 00-5.24-3.86 104.92 104.92 0 01-28.32 4.78c-1.18 0-2.3.05-3.4.05a108.22 108.22 0 01-52.85-13.64 8.23 8.23 0 00-8 0 108.18 108.18 0 01-52.84 13.64 106.11 106.11 0 01-52.46-13.79 8.21 8.21 0 00-8.09 0 108.14 108.14 0 01-53.16 13.8 106.19 106.19 0 01-52.77-14 8.25 8.25 0 00-8.16 0 106.19 106.19 0 01-52.77 14c-1.09 0-2.19 0-3.37-.05h-.06a104.91 104.91 0 01-29.28-5.09 4 4 0 00-5.23 3.8V444a4 4 0 01-4 4H32.5c-8.64 0-16.1 6.64-16.48 15.28A16 16 0 0032 480h447.5c8.64 0 16.1-6.64 16.48-15.28A16 16 0 00480 448zm-256-68a4 4 0 01-4 4h-88a4 4 0 01-4-4v-64a12 12 0 0112-12h72a12 12 0 0112 12zm156 68h-72a4 4 0 01-4-4V316a12 12 0 0112-12h56a12 12 0 0112 12v128a4 4 0 01-4 4zM492.57 170.28l-42.92-98.49C438.41 47.62 412.74 32 384.25 32H127.7c-28.49 0-54.16 15.62-65.4 39.79l-42.92 98.49c-9 19.41 2.89 39.34 2.9 39.35l.28.45c.49.78 1.36 2 1.89 2.78.05.06.09.13.14.2l5 6.05a7.45 7.45 0 00.6.65l5 4.83.42.36a69.65 69.65 0 009.39 6.78v.05a74 74 0 0036 10.67h2.47a76.08 76.08 0 0051.89-20.31l.33-.31a7.94 7.94 0 0110.89 0l.33.31a77.3 77.3 0 00104.46 0 8 8 0 0110.87 0 77.31 77.31 0 00104.21.23 7.88 7.88 0 0110.71 0 76.81 76.81 0 0052.31 20.08h2.49a71.35 71.35 0 0035-10.7c.95-.57 1.86-1.17 2.78-1.77A71.33 71.33 0 00488 212.17l1.74-2.63q.26-.4.48-.84c1.66-3.38 10.56-20.76 2.35-38.42z"/>
  </symbol>
  <symbol id="sunny" viewBox="0 0 512 512">
    <path style="fill: currentColor" d="M256 118a22 22 0 01-22-22V48a22 22 0 0144 0v48a22 22 0 01-22 22zM256 486a22 22 0 01-22-22v-48a22 22 0 0144 0v48a22 22 0 01-22 22zM369.14 164.86a22 22 0 01-15.56-37.55l33.94-33.94a22 22 0 0131.11 31.11l-33.94 33.94a21.93 21.93 0 01-15.55 6.44zM108.92 425.08a22 22 0 01-15.55-37.56l33.94-33.94a22 22 0 1131.11 31.11l-33.94 33.94a21.94 21.94 0 01-15.56 6.45zM464 278h-48a22 22 0 010-44h48a22 22 0 010 44zM96 278H48a22 22 0 010-44h48a22 22 0 010 44zM403.08 425.08a21.94 21.94 0 01-15.56-6.45l-33.94-33.94a22 22 0 0131.11-31.11l33.94 33.94a22 22 0 01-15.55 37.56zM142.86 164.86a21.89 21.89 0 01-15.55-6.44l-33.94-33.94a22 22 0 0131.11-31.11l33.94 33.94a22 22 0 01-15.56 37.55zM256 358a102 102 0 11102-102 102.12 102.12 0 01-102 102z"/>
  </symbol>
  <symbol id="arrow-down" viewBox="0 0 512 512">
    <path fill="none" stroke="currentColor" stroke-linecap="round" stroke-linejoin="round" stroke-width="48" d="M112 268l144 144 144-144M256 392V100"/>
  </symbol>
  <symbol id="arrow-up" viewBox="0 0 512 512">
    <path fill="none" stroke="currentColor" stroke-linecap="round" stroke-linejoin="round" stroke-width="48" d="M112 244l144-144 144 144M256 120v292"/>
  </symbol>
</svg>