<svg xmlns="http://www.w3.org/2000/svg" viewBox="0 0 256 256"><path d="m44 58.3-1.2 2.4L52 76.6l9.2 15.9 2 3.2 1.9 3.1-8.8 5.7-8.8 5.7L36 121.9l-11.5 11.7-5.4 8.7-5.3 8.6-4 9.1-3.8 9.1-2.5 9.3-2.4 9.3-.7 6.2-.7 6.1 128.4-.2 128.4-.3.3-3.7.3-3.8h-1.9l-.5-4.2-.6-4.3-2.6-9-2.6-9-5.4-11-5.3-11.1-6-8.1-6-8.1-7.9-7.7-7.8-7.7-9.7-6.5-9.6-6.4 11-19 11-19.1-1.1-2.5L211 56l-3.1.3-3.1.3-11 19.2-11.1 19.1-5.1-2-5.1-2-6-1.9-6-1.8-9-1.7-9-1.7h-30L102.2 86 92 88l-9.2 3.4-9.3 3.3-11-19.1-11.1-19.1-3.1-.3-3.2-.3zM63.7 144l-1.8 1-1.5 2.9-1.5 2.9v4.2l1.4 2.8 1.5 2.7 2.6 1.2L67 163h6l3.1-2.8 3.2-2.8v-8.8l-3.2-2.8L73 143h-7.5zm116.3 1.6-3.1 2.6v9l3 2.9 2.8 2.9h6.3l2.8-1.5 2.8-1.4 1.3-3 1.2-3-.6-3.5-.7-3.5-2.6-2-2.6-2.1h-7.5zM.3 196.5v4l.4-2.3.4-2.2-.4-1.8-.5-1.7z" fill="#FFFFFF" fill-rule="evenodd"/></svg>