<svg xmlns="http://www.w3.org/2000/svg" viewBox="0 0 256 256"><path d="m52.5 21-45 21-.3 5.3-.3 5.5 2.6 40.8 2.6 40.9 1.4 22.4 1.4 22.3.5.6.6.5.3-.4.3-.4 16.2-35 16-35 24.6-52.8L98 3.8l.6-1.9.6-1.9h-1.6zM156 .8v.8l17.1 37 17.1 36.9 13 28 13 28 11 24 11.1 24 .3.4.4.4.5-.4.4-.5 2-32.4 2.1-32.5 2-31 2-31V42.1l-4.2-1.9-4.3-1.9-41.1-19.2L157.2 0H156zm-29.3 67.9-.5.8-7.5 18.5-7.5 18.5-8.6 20.9-8.6 20.8v.8h67v-.5L151 124l-10.1-24.5-6-15-6.2-15-.7-.8-.8-.9zM74.2 195.3l-3 7.2-3.7 8.9-3.6 8.8.3.3.3.2 30.9 17.7 30.8 17.6h2.6l29.9-17.1 29.8-17.1 1.2-1.2 1.1-1.1-6.5-15.7-6.5-15.8H77.2z" fill="#FFFFFF" fill-rule="evenodd"/></svg>