<svg xmlns="http://www.w3.org/2000/svg" viewBox="0 0 256 256"><path d="m166.2 2-5.3 2-5.4 3-5.4 3-5 4.5-5 4.5-3.7 5.8-3.8 5.7-2.4 5.8L128 42l-1 5.7-1 5.7.7 2.7.5 2.7 1.7.3 1.7.4 5.4-.8 5.5-.7 7.3-3.6L156 51l6.3-6.3 6.2-6.2 3.3-6.1 3.2-6.1 1.6-4.3 1.5-4.4.8-6 .9-6.1-.5-2.7-.5-2.7H175l-3.6.1zm-.1 60-5.4 1-8.1 2.8-8.1 3-6 2.1-6 2.2-5-.5-5-.5-8-3.2-8-3.3-7-1.8-6.9-1.9H82.5l-7 1.5-7 1.5-7.3 3.6-7.3 3.6-6.6 6.1-6.5 6.1-4 5.9-4 5.9-2.4 5.5-2.5 5.6-2.1 8.6-2.2 8.6v29l1.8 9.5 1.8 9.5 4 12 3.8 12 5 10 5 10 6.8 9.5 6.7 9.5 7.2 7.5 7.2 7.6 4.8 2.4 4.8 2.5h17l11-4.5 11-4.4h22l11 4.4 11 4.4h17l5-2.6 5-2.6 4.2-3.7 4.3-3.6 7.4-9.9 7.4-9.9 4.3-7.3 4.3-7.3 3.8-9 3.7-9V189l.1-1.5-4.7-2.5-4.8-2.5-7.1-6.8-7.2-6.7-3.6-7-3.7-7-1.4-6.7-1.5-6.8v-10l1.5-7 1.5-7 3-6.3 3.1-6.2 5.7-6.2 5.7-6.1 3.8-2.8 3.7-2.7-3.9-4.7-3.8-4.6-5.4-4.1-5.4-4-5-2.4-5-2.3-5.6-1.4-5.5-1.5-7.5-.5-7.4-.6z" fill="#FFFFFF" fill-rule="evenodd"/></svg>