<svg xmlns="http://www.w3.org/2000/svg" viewBox="0 0 256 256"><path d="m206 78-6 2-3 2-4 2-3 4-4 5-2 5-3 6v3l-1 4-2 4-2 8-3 9-4 11-3 11h-2l-1-6-2-5-1-7-2-6-1-4v-3l-2-6-2-5h1l-3-7-2-6-3-5-2-4-2-3-2-3-5-3-4-2H64l-6 2-5 3-9 10-9 9-6 8-5 8-2 3-1 3-4 7-4 8-2 6-3 6-4 12-4 12v3h29l6-1 6-2 5-3 6-4 3-5 4-6v-2l1-3 2-3 3-9 2-9 2-7 2-6 3-3 4-4 5-6 5-7 1 1 1 2 2 8 2 9 1 3v3l2 5 1 5 1 2v3l2 6 2 6 3 6 3 7 4 4 4 4 4 2 5 2h57l5-2 5-3 5-4 5-5 6-8 7-8 4-7 4-7 4-5 3-5 5-10 5-9 6-10 5-9v-1l2-3 2-2v-3h-44z" fill="#FFFFFF" fill-rule="evenodd"/></svg>