<svg xmlns="http://www.w3.org/2000/svg" viewBox="0 0 256 256"><path d="m118.5 17-4 .8-5 2.3-5 2.2-7.8 4.6-7.9 4.6-7.6 4.7-7.7 4.6-10 5.7-10 5.7-5.8 3.9-5.8 3.9h-2L28.4 71.4 17 82.7v2.6l-2.4 3.1-2.3 3.1L9 97.7 6 104v2.6l-1.6 3-1.6 3-1.4 8-1.4 8V144l1.4 6.8 1.5 6.8 4 9.9 4 9.9 3.8 5.6 3.7 5.6L29 199.1l10.5 10.5 7.5 5 7.5 5 7.5 3.7 7.5 3.7 7.5 2.4 7.5 2.4 3.5.7 3.5.7 1 .8 1 .7 9.5 1.4 9.5 1.4h31l9-1.4 9-1.4 1-.7 1-.8 3.5-.7 3.5-.7 7.8-2.5 7.8-2.5 8.7-4.5 8.6-4.5 6-4 6.1-4.1 9.8-9.6 9.8-9.6 5-7.4 5-7.4 4-10 3.8-10.2 1-6.5 1-6.5v-13l-1-6.3-1-6.4-3.3-9.9-3.4-9.8-4.6-7-4.6-7v-1.7l-8.8-8.5-8.8-8.4-6.5-4.7-6.4-4.7-12-6.7-12-6.7-4.2-2.8-4.2-2.9h-1.6l-8.5-5.5-8.5-5.6-7.2-3.4-7.2-3.5-4.3-1-4.3-1-5 .1-5 .1zm-36.7 92-2.8.8-3.4 2.1-3.4 2.1-1.7 2.7-1.8 2.6-.4 6.1-.5 6.1 2.2 4.7 2.2 4.7 4.4 2L81 145h10.5l3.4-1.8 3.4-1.8 3-4 2.8-4.1v-11.1l-1.4-2.9-1.5-2.8-2.4-2-2.3-2.1-2.6-1.6-2.6-1.7-3.4-.5-3.4-.5zm84.8-.3-2 .5-3.5 2.3-3.6 2.3-2.2 2.3-2.2 2.4-1 2.8-1.1 2.8v6.8l1 2.8 1.1 2.8 2.7 2.8 2.7 2.9 2.7 1.4 2.7 1.4h10.9l3.3-1.4 3.4-1.4 2.2-2.4 2.2-2.3 1.2-4.5 1.2-4.6-.7-4.7-.7-4.8-3.1-3.5-3-3.5-3.3-1.3-3.2-1.4-3-.5-2.8-.5zM103 159.5v3.6l1.4 3.3 1.4 3.4 3.9 4.3 3.8 4.2 4.4 2.9 4.5 2.8h9.5l2.6-1 2.7-1 4.4-3.6 4.3-3.6 3-4.5 3-4.6.7-3.4.6-3.3-1.2-1.5-1.2-1.5H103z" fill="#FFFFFF" fill-rule="evenodd"/></svg>