<svg xmlns="http://www.w3.org/2000/svg" viewBox="0 0 256 256"><path d="m121 10.7-1.5.6L76 35.7 32.5 60.2l-3.7 2.5-3.7 2.5-2.6 5.1-2.5 5v105.2l1.9 4 1.8 4 2.8 2.7 2.7 2.8 43.2 24.2 43.1 24.2 3.7 1.8 3.7 1.8h10.2l3.7-1.8 3.7-1.8 43.1-24.2 43.2-24.2 2.7-2.8 2.8-2.7 1.8-4 1.9-4V75.4l-2.5-5-2.6-5.2-3.7-2.5-3.7-2.5-44-24.8-44-24.8-6.5-.3-6.5-.2zM113.2 69l-7.3 2-7.1 3.7-7.2 3.7L85 85l-6.6 6.6-3.7 7.2-3.8 7.1-2 7.7-1.9 7.7v13.4l2 7.7 2 7.7 3.7 7.1 3.7 7.2L85 171l6.6 6.6 7.2 3.7 7.1 3.8 7.7 2 7.7 1.9h13.4l7.5-2 7.6-1.9 5.9-3 6-3 5.4-4.4 5.6-4.5 1.6-2.5 1.6-2.5-10.4-6.2-10.5-6-4.6 3.4-4.6 3.5-5.6 2.2-5.7 2-8-.3-8-.3-5.7-2.7-5.7-2.6-4.6-4.7-4.7-4.6-2.6-5.7-2.7-5.7v-19l2.7-5.7 2.6-5.7 4.7-4.6 4.6-4.7 5.7-2.6 5.7-2.7 8-.3 8-.4 5.7 2.1 5.6 2.2 4.6 3.5 4.6 3.5 10.4-6.2 10.5-6-1.6-2.6-1.6-2.5-5.6-4.5-5.5-4.5-5.9-3-6-3-7.5-1.9-7.5-1.9h-7.1l-7.1.1zm66.8 39v5h-11v8.9l5.3.3 5.2.3v11l-5.2.3-5.3.3v8.9h11v10h9v-10h11v10h9.5v-9.5l5.3-.3 5.2-.3V134l-5.2-.3-5.3-.3v-11l5.3-.3 5.2-.3V113l-5.2-.3-5.3-.3V103H200v10h-11v-10h-9zm9.4 15.4-.5 1.4.3 4.3.3 4.4 5.3.3 5.2.3V122h-10z" fill="#FFFFFF" fill-rule="evenodd"/></svg>