<svg xmlns="http://www.w3.org/2000/svg" viewBox="0 0 256 256"><path d="M73 34 18 65v63l1 63 54 32 55 31 54-31 55-32V65l-55-32-54-31zm6 10L31 72v112l48 28 48 28h3l47-28 48-27V71l-48-27-47-27-2-1h-1zM62 90l-4 2-5 5-5 5-3 6-3 7-1 5-2 5v43l7-11 7-11 6-9 6-9 8-7 7-8 5-2 5-3-4-6-4-6-4-2-4-3-3-1-3-1h-2zm120 3-4 2-4 4-4 4-6 10-6 10 2 3 1 4 1 1 1 1 4-6 5-6 4-3 5-4 5-2 6-3h15l4 2 4 2-1-2-1-2-6-7-7-6-4-2-4-2h-6zm-64 3-3 3-3 6-3 6v3l4 2 3 3 5 3 6 3 5 1h4l5-1 4-2v-2l-5-9-4-8-5-5-5-5h-5zm-31 26-5 3-5 6-5 6-8 11-8 12-4 9-5 9v2l8 4 8 5 1-1 1-1 6-12 6-11 3-10 4-10 4-13 5-12h-2zm109-2-3 1-5 2-4 2-6 5-5 6-2 4-2 4 4 4 4 4h4l3-1 3-2 2-3 3-2 2-5 2-4 3-5 3-4 4-2 3-2-1-1-1-1h-4l-4-1zm-87 8v3l6 12 6 12 4 4 4 5 3 1 3 1 3-1 4-1 4-4 4-3 4-6 4-6-4-6-3-6v-1h-1l-5 2-5 2h-11l-5-2-6-2-5-3-5-3zm104 4h-1l-3 2-3 2-3 6-3 7-3 3-2 3-5 3-5 3h-9l-5-2-4-2-1-2-2-2-5 6-4 6-4 3-5 4-3 1-4 2h-7l-5-2-4-2-4-4-4-4-4-8-5-7-2-7-3-7-6 14-5 15-8 16-8 17 22 13 22 13 5 2 5 3 44-25 44-26v-45h-1z" fill="#FFFFFF" fill-rule="evenodd"/></svg>