<svg xmlns="http://www.w3.org/2000/svg" viewBox="0 0 256 256"><path d="m124 77-5 2-4 1-4 2-4 3-4 3-5 4-4 4v2h-2l-3 5-3 6v3l-4-2-4-2h-4l-4-1-6 2-5 1-5 4-4 4-2 4-2 5v11l-5 1-5 1-4 2-5 2-4 4-4 5-1 2-2 3-1 2-1 3v17h156l1-5 1-6v-4l-2-3-1-3-4-2-3-1-43-1H77l-1-1-1-1 1-1 1-1 44-1h45l5-3 5-2 3-3 3-3 2-4 2-4 2-5 2-5v-6l-3-6-2-6-1-2-1-1-3-4-3-4-6-4-5-5-5-2-5-2-6-2-5-1h-16zm70 44v2l-2 6-2 6v7l2 2 3 3 3 2 4 1h19l1 2v2h-1l-11 1-11 1-5 1-4 2-6 5-6 6v3l-1 3-1 1v2h66l1-7v-13l-1-7-2-5-2-4-3-4-2-3-4-4-4-4-5-3-4-2-9-2-8-2h-6z" fill="#FFFFFF" fill-rule="evenodd"/></svg>