<svg xmlns="http://www.w3.org/2000/svg" viewBox="0 0 256 256"><path d="m52 15-7 11-17 27-17 28-6 8-5 9 2 19 3 20 9 54 8 54 1 2v3h42v-2l-1-11-1-11-1-6v-5h20v2l1 16 2 16v1h86v-1l2-16 1-16v-2h20v5l-1 5-1 11-1 12v2h42v-3l1-2 8-54 9-54 2-16 2-15 1-2 1-2v-6h-1l-1 1-6-11-7-10-22-35-22-35-70-1H58zm7 61L47 99l6 43 5 43 1 3v3h138v-4l1-3 5-43 6-42-12-23-11-23h-37v2l1 3 1 6v6h-46v-6l1-6 1-3v-2H70zM0 101v4l1-3v-4l-1-1zm163 19-2 3-1 8-1 8 1 8 1 8 2 3 1 3h2l1-1 2-2 1-3 1-8 1-7-1-9-1-8-1-3-2-2-1-1h-2zm-73 1-2 3-1 8-1 9 1 9 1 8 2 3 1 2h2l1-1 2-2 1-3 1-5 1-5v-12l-1-5-1-5-1-3-2-2-1-1h-2z" fill="#FFFFFF" fill-rule="evenodd"/></svg>