<svg xmlns="http://www.w3.org/2000/svg" viewBox="0 0 256 256"><path d="m104 8-9 2-8 3-7 2-6 3-6 3-8 5-7 5-10 9-9 9-6 9-6 9-4 6-3 7-3 9-3 9-1 7-2 8v29l2 10 2 10 3 7 2 8 3 6 3 6 5 7 5 8 11 10 11 11 7 5 8 5 7 3 7 4 8 2 8 3 8 1 9 2h28l8-2 8-1 8-3 8-2 7-4 7-3 7-5 8-5 10-11 11-10 5-8 5-7 3-6 3-6 2-8 3-7 2-10 2-10v-28l-2-10-2-10-3-7-2-7-3-6-3-6-5-8-5-7-11-11-10-11-8-5-7-5-6-3-6-3-8-2-7-3-10-2-10-2h-29zM70 82l-5 2-5 2-4 3-5 5-4 4-2 5-3 6-1 5-2 6v14l1 6 2 7 3 6 2 6 6 5 6 6 6 2 6 2 8 1h9l6-1 6-2 5-3 4-2 4-5 4-4 1-5 2-4v-3h-14l-1 3-1 4-5 4-4 4-6 1-5 1h-5l-5-1-5-2-4-2-3-3-3-3-2-5-2-4v-11l33-1h34v-8l-1-7-2-7-2-6-3-5-5-5-5-6-6-3-5-2-9-1h-9zm64 6 5 7 11 15 11 15v2l-17 23-17 24v1h18l13-19 13-20h1l12 20 13 19h19v-1l-18-25-17-24v-1l1-1 15-21 16-21h-18l-12 17-11 16h-1l-11-16-11-17h-20zm-60 6-5 2-4 3-4 3-3 5-3 6-1 3v4h52l1-1v-1l-1-5-2-6-4-5-5-5-4-1-3-2h-5l-4-1z" fill="#FFFFFF" fill-rule="evenodd"/></svg>