<svg xmlns="http://www.w3.org/2000/svg" viewBox="0 0 256 256"><path d="m108 2-9 1-11 3-10 4-7 4-7 3-8 5-7 5-11 11-11 11-5 7-5 8-3 7-4 7-3 8-3 9-2 8-1 9v33l1 8 2 9 3 8 3 9 4 7 3 7 5 7 5 8 11 10 11 11 7 5 8 5 7 3 7 4 10 4 11 3 11 2 12 1h12l13-1 8-2 9-2 7-3 8-2 7-4 7-3 7-5 8-5 10-11 11-10 5-8 5-7 3-8 4-7 3-10 4-10 1-9 1-8 1-2 1-2v-21l-1 1h-1v-7l-2-9-2-8-3-9-3-8-1-2-1-1-4 4-4 4-5 3-5 2h-1v1l1 3 2 4 2 7 2 8 1 9 1 9-1 11-1 10-3 9-2 8-4 9-4 8-6 8-6 8-7 6-7 7-7 4-7 5-6 3-7 3-9 2-8 3-10 1-10 1-10-1-10-1-9-3-8-2-9-5-9-4-7-5-7-5-8-8-7-9-5-8-5-8-4-9-3-8-2-8-1-8v-25l1-8 2-8 3-9 4-9 5-8 5-8 11-11 11-11 8-5 8-5 9-4 9-3 8-2 8-1h25l7 1 8 2 8 3 8 3h1l2 1 2-4 2-4 5-6 5-5-8-3-7-4-5-2-5-1-9-2-8-2h-15l-14-1zm92 22-5 3-3 4-4 4-2 6-1 5v5l1 5 2 4 2 4 3 3 3 3 4 2 4 2 5 1h5l5-1 6-2 4-3 4-4 3-6 2-5v-7l-1-6-1-4-2-4-4-4-3-3-3-2-3-1-8-1h-7zm-87 48-5 1-7 4-7 3-7 7-7 7-3 7-4 7-1 6-2 5v18l2 5 1 6 4 7 3 8 7 6 7 7 7 3 7 4 6 1 6 2h16l6-2 7-1 7-4 7-3 6-7 7-6 3-7 4-7 1-7 2-6v-16l-2-6-1-6-4-7-3-7-7-7-6-7-8-3-7-4-6-1-5-2h-18zM0 128v12l1-6v-12l-1-5z" fill="#FFFFFF" fill-rule="evenodd"/></svg>