<svg xmlns="http://www.w3.org/2000/svg" viewBox="0 0 256 256"><path d="m20 19-5 1-5 5-5 5-1 4-2 5-1 4-1 4v41l1 41 1 9 1 9 2 8 2 8 4 9 4 9 5 7 4 8 8 7 8 8 7 6 8 6 9 5 10 4 8 2 9 3 9 1 10 1h24l25-1 8-2 9-2 8-3 8-3 7-4 7-4 5-5 6-4 6-7 7-6 3-4 3-4 3-7 4-6 3-7 3-7 2-8 2-7 1-10 1-9 1-1 1-1V43h-1l-1 1-1-5-1-4-2-4-2-4-4-3-4-4-5-2-5-1H25zM0 86v43l1-22V65L0 44zm180-37-1 2-4 19-5 19 1 1 1 1 20 5 21 5h1v-1l5-20 6-20-1-2-1-1-19-4-19-5-2-1h-2zM42 71h-1v49l2 8 1 9 3 8 3 8 4 6 4 6 4 5 5 5 6 5 6 5 6 3 6 4 9 3 9 3 8 1 8 1h8l9-1 8-2 8-2 9-4 9-5 7-6 8-6 3-4 4-5 4-6 4-6 3-8 3-8 1-9 2-8v-7h-2l-1-1h-40l-1 1h-2v7l-2 5-1 6-3 4-3 5-5 4-4 4-5 3-5 2-7 1-6 1-6-1-6-1-6-2-5-3-4-4-4-3-3-5-3-4-2-4-1-4-1-27V71l-23-1H42z" fill="#FFFFFF" fill-rule="evenodd"/></svg>