<svg xmlns="http://www.w3.org/2000/svg" viewBox="0 0 256 256"><path d="m146 12-3 5-2 5-2 5-1 6v6l1 7 2 8 4 8 4 8 6 7 6 6 7 4 7 5 5 2 6 2 9 1 10 1 7-1 7-1 6-2 6-2 6-7 7-7-1-1-1-1-6 3-6 2-8 1-7 1-6-1h-5l-8-3-8-2-8-5-7-5-7-7-6-6-4-8-4-8-1-7-1-7v-9l1-8h-2zM89 28l-4 6-4 8-3 8-2 9-1 10 1 10 1 10 2 7 2 7 4 7 3 8 5 6 4 6 6 6 7 7 7 5 7 5 10 5 10 5 8 2 8 2h31l10-2 11-3 8-4 8-4 6-5 5-5 5-5 5-6 4-7 3-7h-3l-3 3-2 3-9 6-9 6-6 2-5 2-7 2-6 1h-22l-6-1-6-1-7-3-7-2-7-4-7-3-9-6-9-6-6-7-7-6-5-8-5-7-3-7-3-7-2-9-1-8V43l1-15 1-3v-3h-2zM25 48l-4 4-5 8-5 7-3 8-3 8-2 7-1 7v30l1 8 2 8 3 9 3 8 4 8 4 8 3 5 4 6 6 7 6 8 9 8 9 8 9 7 10 6 8 4 9 4 8 2 9 3 9 2 10 1h31l10-2 10-2 9-4 9-3 6-4 7-3 6-5 7-5 7-7 7-7 5-8 5-8 1-2v-3h-1l-6 5-6 6-6 3-5 3-9 4-9 4-11 3-10 2h-36l-6-1-6-1-10-3-10-3-8-4-8-4-8-5-8-5-8-7-8-6-9-8-8-8-4-7-5-6-3-8-4-7-2-6-3-7-2-10-2-10V69l1-11 2-11v-2l-1-1h-1z" fill="#FFFFFF" fill-rule="evenodd"/></svg>