<svg xmlns="http://www.w3.org/2000/svg" viewBox="0 0 256 256"><path d="M15 2Q5 6 2 15c-2 5-2 7-2 113s0 108 2 113q3 9 13 13c5 2 8 2 113 2 106 0 108 0 113-2q10-4 13-13l2-4-2-222q-3-9-13-13c-5-2-7-2-113-2C24 0 19 0 15 2m170 115-3 1-4 2c-6 2-14 10-16 17q-5 18 4 31 6 9 20 15l8 4h3l1 1 3 2q9 5 11 12 0 11-16 12c-10 0-14-1-20-8q-6-7-7-5l-7 5-6 3-1 1q-6 0 5 11 11 13 32 14 23 2 34-10c7-7 8-11 9-21 0-16-4-24-18-33l-22-10q-12-6-12-13c0-5 0-5 3-8 6-5 16-4 22 4l2 3 4-3 7-4 3-2 1-1c7 0-5-15-14-17l-3-2c-1-1-19-2-23-1m-70 43c0 47 0 50-5 53-7 3-17 0-20-6l-3-4-10 5-9 5q-2 1 1 3l1 3 10 10c8 6 27 8 39 4q12-6 16-14l3-8 1-48v-45l-12-1h-12z" fill="#FFFFFF" fill-rule="evenodd"/></svg>