<svg xmlns="http://www.w3.org/2000/svg" viewBox="0 0 256 256"><path d="m26 1-4 1-8 4C8 9 3 17 2 22l-1 4a2909 2909 0 0 0 1 208q5 15 20 20l4 1a2909 2909 0 0 0 206-1c4 0 12-5 15-8q7-8 7-14l2-3 1-102c0-64 0-102-1-101q-1 5-3-6-3-10-13-15l-8-3-2-1-102-1zm89 137q-14 3-18 15-3 12 2 22c5 8 8 10 28 19q13 7 7 14-11 9-23-3l-5-4-7 4-8 5q0 4 8 11c11 10 32 12 46 4q12-8 11-21c0-15-6-21-26-31q-18-7-13-13c1-6 9-7 15-1l4 3 15-10-8-10q-12-9-28-4m-52 0-1 34c0 34 0 34-2 36q-7 7-15-1l-4-4-4 2q-12 6-12 8l4 5q3 5 10 9c6 3 7 3 15 3q15 1 22-8c6-7 6-9 6-48v-36l-10-1zm98 0 11 22 11 22-12 23-12 24 10 1h9l8-14 9-15 9 14 8 15h9l9-1q1-1-11-24l-13-23 12-21 11-23-10-1-9 1-7 13-8 13-8-13-7-13-9-1z" fill="#FFFFFF" fill-rule="evenodd"/></svg>