<svg xmlns="http://www.w3.org/2000/svg" viewBox="0 0 256 256"><path d="M108 33v33L89 40 70 14l-2-1h-1L52 24 38 35v3l19 26 19 26h-1l-10-3-10-4-21-6-20-7h-3L6 88l-6 18v1h1l31 11 31 10-2 1-2 1-29 9-29 9-1 1 5 18 6 19h1l31-10 31-10h1v1l-19 26-19 26v2l15 11 15 11h2l19-27 20-26v66h40v-33l1-33 19 26 19 27h2l15-11 15-11v-2l-19-26-19-26v-1h1l31 10 31 10h1l5-17 5-16 1-1 1-1v-4l-1 1h-2l-30-10-29-9-1-1-1-1h3l29-10 30-10h1l1-1v-3h-1v1l-6-17-5-17h-3l-9 3-8 3-21 7-21 6-2 1h-1l9-13 10-12 9-14 10-13v-2l1-1-15-11-15-11h-1l-2 1-19 26-18 26-1-33V0h-40zm30 50-8 12h-3l-8-12-8-11-1 14v14l-1 1-1 1-13-5-14-4h-1v1l9 11 8 12v2l-14 4-14 4v2h2l13 4 13 4v2l-7 9-7 10-1 2-2 3 14-5 14-4h2v30l9-12 8-11 1-1h1l9 12 9 13v-31h2l13 4 14 5-1-1v-1l-8-11-8-11v-2l13-4 13-4h2v-2l-14-4-14-4v-2l8-12 9-11v-1h-1l-14 4-13 5h-1V71zM0 106v2zv-2zm0 44v3l1-2v-2l-1-1z" fill="#FFFFFF" fill-rule="evenodd"/></svg>