<svg xmlns="http://www.w3.org/2000/svg" viewBox="0 0 128 128"><path d="m44 17-11 5a48 48 0 0 0 0 84c9 5 15 6 31 6s22-1 31-6c29-15 34-54 10-76q-9-9-21-13zm0 4q-23 6-31 29-2 6-2 16 1 17 13 29c5 6 15 12 20 12q5 1-3-6C26 89 19 66 26 51q7-13 19-18c16-5 33 2 41 18q3 4 2 13c0 8 0 9-3 15l-7 9q-4 5 0 5c3 0 12-5 16-9 6-7 7-12 7-23-1-9-1-11-4-17a46 46 0 0 0-53-23m38 1 6 5q16 15 16 36c0 7 0 9-2 14q-7 13-19 18c-16 5-33-2-41-18q-2-4-2-13c0-10 2-15 9-23q5-5 3-6c-3-1-11 3-16 7q-12 12-9 29c5 31 39 47 67 32 7-3 15-13 19-21 3-6 4-7 4-18s-1-12-4-18q-7-15-20-22-10-5-11-2M56 39a29 29 0 0 0-2 48c7 6 10 6 17 2 9-4 15-15 15-25s-6-21-15-25c-6-4-8-4-15 0" fill="#FFFFFF" fill-rule="evenodd"/></svg>