<svg xmlns="http://www.w3.org/2000/svg" viewBox="0 0 256 256"><path d="M9 5Q1 9 2 18c0 7 1 9 10 21s9 12 14 27q7 22 15 31l3 4-1 5q-12 36 0 62 10 19 21 15 6-2 7-15l2-10 5 9q4 8 11 15l26 23q1-1-5-6a247 247 0 0 1-37-63l-9 12-3 13-2 10v3l-3-2c-4-3-8-13-10-22q-3-17 4-37l3-14-4-6q-8-8-14-29c-5-14-7-18-15-29Q9 21 10 18q0-5 7-5c5 1 20 8 26 13 5 4 5 4 13 4 13 0 24 4 41 16a153 153 0 0 1 59 77l19 37c3 4 4 5 13 8l14 5c5 2 33 20 33 22h-3c-9-1-34 5-36 8-3 4 7 16 17 23l15 8c9 5 20 12 24 16q4 4 3-1a118 118 0 0 0-32-30l-10-7-3-3 7-2 12-2c9-2 18-4 18-6 0-5-28-28-45-36l-14-7c-3-1-4-4-11-16l-14-30c-9-23-20-38-38-55-22-22-48-35-66-35q-6 1-10-3Q39 9 28 6 16 1 9 5m43 42 3 5 5 8q2 6 4 1c5-7 0-15-8-15z" fill="#FFFFFF" fill-rule="evenodd"/></svg>