<svg xmlns="http://www.w3.org/2000/svg" viewBox="0 0 256 256"><path d="m119 4-4 2-24 14-23 13-22 13-21 12-4 3-3 4-2 3-1 3v114l1 2 1 3 3 3 3 4 15 8 15 9 5 2 5 2h15l4-1 4-1 4-4 5-4 2-6 2-5V81l-8-1h-8l-2 1-1 1v108l-1 3-2 4-2 2-3 1h-5l-5-1-14-8-15-8V74l4-2 4-3 17-10 17-9 13-8 14-8 13-7 13-8 12 7 12 6 22 13 22 13 12 7 13 8v110l-6 4-6 3-18 10-17 11-23 13-23 13-12-7-13-8h-2l-3 2-3 2-5 1-5 2v3l13 8 14 8 6 3 6 3h6l6-1 13-7 13-8 16-9 16-9 18-11 18-10 2-3 3-2 2-4 2-4V67l-3-3-2-4-15-9-14-8-19-11-18-11-16-9-16-9-7-1h-6zm18 75-6 2-5 2-5 3-4 4-4 5-1 4-1 5v7l1 7 2 4 3 4 4 2 4 3 5 2 6 2 16 2 17 2 5 2 6 1 2 2 2 2v7l-1 3-1 2-4 2-4 2-9 1-8 1-9-1-9-1-4-2-4-2-2-3-2-3-1-4v-4l-2-1-1-1h-7l-7 1v14l3 5 2 5 4 3 4 3 4 2 4 2 6 1 7 2h7l8 1 8-1 9-1 7-2 6-2 4-3 4-4 3-4 3-5 1-8v-8l-1-4-1-3-2-3-2-2-3-3-4-2-7-2-7-3-15-2-15-2-6-2-6-1-2-2-2-1v-6l1-3 2-3 5-2 5-1h23l4 1 5 2 2 2 2 3 2 5 2 5h16v-2l1-1-1-6-1-5-2-4-2-3-4-4-3-4-6-2-5-3-7-1-6-1h-19z" fill="#FFFFFF" fill-rule="evenodd"/></svg>