<svg xmlns="http://www.w3.org/2000/svg" viewBox="0 0 256 256"><path d="M112 61C58 65 17 85 3 112c-2 5-2 7-2 16s0 11 2 16c12 25 47 43 93 50 16 2 48 2 64 0 38-6 71-20 85-38 5-6 10-15 10-18l1-2 1-9q0-8-1-7l-1-2-3-7c-12-24-46-42-91-48-11-2-40-3-49-2m-4 51-7 33q-2 3 7 2h7l3-18 4-19 9-1q9 0 11 2c1 2 1 4-5 33v3h14l3-16c3-19 4-22 2-26-3-4-6-5-20-6l-12-1 2-8c2-9 2-9-6-9h-6zm-62 19-6 33 7 1h6l2-7 1-9c1-2 2-2 14-2 14-1 18-2 24-9 10-10 11-27 3-34-4-4-9-5-27-5H52zm120-28-6 33-6 29h14l2-9 2-8 12-1c14-1 17-2 23-7q9-8 10-21 1-8-2-11c-4-7-8-8-29-9h-19zm-102 6-5 28c0 3 17 1 22-3 6-4 9-17 5-22-3-3-20-6-22-3m115-1-2 14c-4 18-5 16 6 16q18-1 19-15c2-11 0-14-14-15zM0 128l1 4v-8z" fill="#FFFFFF" fill-rule="evenodd"/></svg>