<svg xmlns="http://www.w3.org/2000/svg" viewBox="0 0 256 256"><path d="M105.3 1.5 98 3l-8.3 2.5L81.4 8 73 12l-8.5 4.2-8.2 5.4-8.2 5.5-8 7.6-8.2 7.6-6.5 8.6-6.4 8.6-5 9.5-4.9 9.6-2.6 7.9-2.7 8-1.9 9.7-1.9 9.9V142l2 9.8 1.8 9.8 2.6 7.7 2.6 7.8 3.6 7.2 3.6 7.2 5.4 8.2 5.5 8.2 7.6 8 7.6 8.2 8.6 6.5 8.6 6.4 9.5 5 9.6 4.9 7.9 2.6 8 2.7 9.7 1.9 9.9 1.9H142l9.8-2 9.8-1.8 7.7-2.6 7.8-2.6 7.2-3.6 7.2-3.6 8.2-5.4 8.2-5.5 8-7.6 8.2-7.6 6.5-8.6 6.4-8.6 5-9.7 5-9.6 3-9 3-9.1 1.2-8 1.2-8.1h1.6v-32.1l-.8.5-.8.5-1.2-7.2-1.3-7.2-2-7-2.1-7-4.4-9.4-4.4-9.3-5.5-8.4-5.6-8.3-7.6-8-7.6-8.2-8.6-6.5-8.6-6.4-9.5-5-9.6-4.9-7.9-2.6-8-2.7-9.7-1.9-9.9-1.9-14.7.1-14.7.1zM180 50.2l-4.4 2.1-2.8 4.5-2.9 4.6-.6 3.4-.7 3.4L170 72l1.2 3.8 2.6 3.1 2.6 3 3.8 2 3.8 2h9.6l1.2-.8 1.3-.8-6.5-6.4-6.5-6.4v-2l8.7-8.8 8.7-8.7-4.5-2-4.4-2H188l-3.5-.1zm14.6 12.6-7.7 7.8 6.3 6.2 6.3 6.3 2.1-2.3 2.2-2.3 1.5-3 1.6-3v-11l-2-3.2-2-3.3h-.5zm5.7 2.7-.6 1.6.5.6.6.6-1 2-1 2 1 1 1 1 1.6-1.3 1.6-1.3-.3-3.5-.3-3.5-1.2-.5-1.3-.4zm-45.8 15-5 2.6-8.1 6.4-8.2 6.4-13 12.5-12.8 12.5 4.8 4.8 4.7 4.8 24.8-24.8L166.5 81h3l-2-1.5-1.9-1.5h-6.1zm-10.5 28L119.5 133l2.7 2.7 2.7 2.7 2.3-2 2.3-2 20.5-17.9 20.5-17.7 3.3-3.4L177 92v-4.7l-1.8-1.6-1.9-1.7h-4.8zm10 9.1-22.5 19.6-2 2-2 1.8 4.3 4.3 4.3 4.2 13-13.2 12.8-13.2 5.5-7.3 5.5-7.4 2.1-4.8 2.2-4.8-.5-.4-.4-.4zM.4 128v16.5l.3-8.2.4-8.3-.4-8.2-.3-8.3zm98 2.1-5.9 6.1 3.5-.7 3.5-.7 6.9-1.5 6.8-1.5-3.8-3.9-3.8-3.9h-1.2zm15 9-2.9 3.1 3.5-.7 3.5-.6 1.8-.6 1.8-.5-1.7-1.9-1.7-1.9h-1.3zm.2 6-8 1.7-20 20.1-20 20 5.9 6 6 6.1H80l-.7-2.7-.7-2.8V190l-.1-3.4 10.2-5.6 10.1-5.5 9.6-6 9.6-5.9 7.6-6 7.6-5.8-4.3-4.4-4.3-4.4H123l-1.5.2zm-55 49-4.9 5 1.5.4 1.4.4 9.5.6 9.4.6-5.9-6-6-6z" fill="#FFFFFF" fill-rule="evenodd"/></svg>