<svg xmlns="http://www.w3.org/2000/svg" viewBox="0 0 256 256"><path d="M172 17q-17 4-38 22l-6 5-8-7Q93 16 74 16c-6 0-7 1-11 4-9 7-11 15-11 34l1 22q2 8 1 10l-8 3Q9 103 2 123q-3 12 11 25c8 8 25 18 38 21 5 1 5 1 2 11-4 23-2 44 7 54q6 6 17 6 19 0 43-21l9-6 11 8q26 22 44 19 13-2 18-18c3-8 4-26 2-39l-2-12 9-4q42-17 43-39c0-15-19-31-47-40-7-2-7-1-5-12 6-32 0-56-17-60-5-1-6-1-13 1M72 24q-8 2-11 11c-3 10-1 42 2 48q0 2 12-1l17-3c7 0 7-1 10-4l18-22 2-3-2-3-23-17c-9-5-20-8-25-6m100 0-9 4c-10 5-28 19-28 22l5 8 11 13 6 8h7l29 5 4-25q0-17-4-27-6-11-21-8m-53 42-7 10c1 2 31 2 32 0 0-2-13-18-16-19q-1-1-9 9m-9 20q-6 0-7 2l-20 32-3 8 4 10 19 31c2 2 24 3 39 2l11-1 6-10 12-21 6-11-5-9c-5-10-16-29-19-31-1-2-4-2-20-2zm-35 4-9 2c-1 2 8 24 9 24 2 0 16-24 17-27q0-2-17 1m89-1 5 10 12 17c1-1 9-20 9-23-1-3-26-7-26-4M46 97q-27 11-34 24-4 6-2 10 5 16 35 27l11 4 5-9 7-17 3-8-3-8-11-26zm152-2-3 7-6 16-4 10 4 7 10 26c1 2 21-6 31-12 7-5 15-13 16-17q4-17-30-32-16-7-18-5m-75 12q-15 5-16 20c0 21 24 29 37 14q6-6 5-16c-1-12-14-21-26-18m55 35-8 14q-9 15-3 13l23-5c1-2-7-22-8-24q-2-2-4 2m-107 6-5 17 24 4q5 2-3-12l-11-17zm111 26-17 3c-8 0-7 0-18 14l-10 13c-3 3-2 4 8 12q16 13 30 16 22 5 22-32c0-13-3-27-5-28zm-119 1c-2 5-4 20-4 28q1 23 10 28 12 5 32-7c8-5 21-16 21-17l-5-8-19-21zm63 4-14 1c0 2 15 20 16 20l15-17q3-4 1-4l-2-1z" fill="#FFFFFF" fill-rule="evenodd"/></svg>