<svg xmlns="http://www.w3.org/2000/svg" viewBox="0 0 256 256"><path d="M102 2q-37 8-63 34Q9 64 2 104a126 126 0 0 0 34 113q28 30 68 37a127 127 0 0 0 116-37q27-28 34-63l2-8v-37l-2-6q-6-36-34-64-28-30-68-37c-11-3-39-2-50 0m37 32a178 178 0 0 0-58 28c-10 7-24 21-29 31-4 8-4 9-4 17 0 7 0 8 3 14 6 9 14 17 33 30l9 7 4 3-8 4q-20 11-29 24c-5 8-6 21-1 26 4 6 5 6 15 6 8 0 10 0 16-4q7-3 11-7c12-10 16-29 11-45q-1-2 4-3c9-2 26 1 32 6q11 8 10 18l-5 7q-7 6-2 4 11-5 12-15-1-16-17-24-16-7-34-3l-5 1-5-5-13-10q-23-17-23-32l4-15 2-3q10-17 43-33l23-10c15-5 38-5 48-1q8 5 10 13c1 9-10 26-22 34l-5 3-2 1-8 4c-25 10-36 9-50-1q-4-3-2 3c7 12 27 16 49 11l21-8 6-4q15-8 23-28 3-4 2-15c0-9 0-10-3-14q-5-9-20-15c-6-2-8-2-22-2-13 0-17 1-24 2M0 128l1 9zm95 47c-9 5-22 18-24 24q-2 7 1 11c4 7 22-3 29-17 3-6 4-22 1-22z" fill="#FFFFFF" fill-rule="evenodd"/></svg>