<svg xmlns="http://www.w3.org/2000/svg" viewBox="0 0 256 256"><path d="M110 53q-23 5-36 25c-4 7-10 20-10 23l7-5q15-16 34-13c9 2 15 5 30 19 15 15 20 18 32 23 7 2 8 2 25 2s18 0 25-2l13-6q11-8 18-20c3-5 8-19 8-21l-6 5q-21 21-45 10-6-2-19-16a80 80 0 0 0-34-23c-6-2-9-2-21-3q-14-1-21 2m-62 76q-33 8-46 41l-2 8 6-5q6-7 14-10c6-3 7-3 15-3 13 0 18 2 35 19 22 21 34 26 59 26q36 0 53-27c4-7 10-20 10-23l-7 5q-15 16-34 13c-9-2-15-5-30-19a79 79 0 0 0-32-23c-7-2-9-2-22-3z" fill="#FFFFFF" fill-rule="evenodd"/></svg>