<svg xmlns="http://www.w3.org/2000/svg" viewBox="0 0 256 256"><path d="M15 2Q5 6 2 15c-2 5-2 7-2 113s0 108 2 113q3 9 13 13c5 2 8 2 113 2 106 0 108 0 113-2q10-4 13-13l2-4-2-222q-3-9-13-13c-5-2-7-2-113-2C24 0 19 0 15 2m169 120c-12 3-24 14-24 22l-1 2v12l1 2 4 11c2 3 15 11 20 13 7 2 18 9 22 13q8 11-6 17a55 55 0 0 1-41-9l1 24 1 1 3 1q8 3 27 3c11 0 24-2 25-4h1l1-1 2-1c4-1 12-10 13-15v-22c-2-6-12-16-21-20-26-12-30-15-27-25q1-3 5-4l6-3h15l5 1 7 2c7 4 7 4 6-8v-11l-4-1-19-2c-13 0-17 0-22 2M60 132v10h31v91h25v-91h32v-20H60z" fill="#FFFFFF" fill-rule="evenodd"/></svg>