<svg xmlns="http://www.w3.org/2000/svg" viewBox="0 0 256 256"><path d="M14 2Q5 6 1 16L0 129c1 121 0 111 8 119 7 8-3 7 119 8h109l5-2q8-4 14-15l2-5V125l-3-112-5-6c-7-7 0-7-121-7C33 0 18 0 14 2m152 47q-12 3-22 13-11 11-14 24-1 8-2 0-3-12-13-23a46 46 0 0 0-53-9q-12 6-20 18c-8 13-8 33 0 47l2 4-2 4c-5 10-8 27-6 38q2 15 13 26a47 47 0 0 0 79-23q1-7 3 0c2 12 13 26 26 32q6 3 16 4 22 2 36-13 22-23 9-53c-3-7-3-7-2-10l6-24q4-24-12-40a47 47 0 0 0-44-15m6 31q-11 4-12 16l-2 8c-3 6-5 7-29 7-22 0-28 1-37 6q-11 5-17 13c-5 7-9 20-9 27 0 14 15 23 25 15q6-4 7-13 1-11 7-14c3-2 4-2 29-2h26v9q-1 15 7 19 3 3 9 3 9 1 14-8c2-3 2-4 2-17v-14l-4-3-5-5q-3 1 1-6 7-10 7-24 2-10-6-15c-3-2-10-3-13-2m-96 2q-15 6-8 22c3 6 6 7 19 7l11 1v-11c0-9 0-10-2-13l-5-5c-4-3-12-4-15-1" fill="#FFFFFF" fill-rule="evenodd"/></svg>